<svg xmlns="http://www.w3.org/2000/svg" width="98" height="17" viewBox="14 53 98 12" fill="none" style="&#10;">
<rect x="15" y="52.6697" width="20.8696" height="13.3565" rx="2.50435" fill="#016FD0"/>
<path fill-rule="evenodd" clip-rule="evenodd" d="M24.207 61.2589H23.2131L23.8362 57.4402H24.8301L24.207 61.2589Z" fill="white"/>
<path fill-rule="evenodd" clip-rule="evenodd" d="M22.3761 57.4402L21.4319 60.0665L21.3172 59.5007L20.9846 57.7844C20.9846 57.7844 20.9426 57.4402 20.5106 57.4402H18.9471L18.928 57.5052C18.928 57.5052 19.4058 57.6047 19.9678 57.9412L20.8317 61.2589H21.8676L23.4463 57.4402H22.3761Z" fill="white"/>
<path fill-rule="evenodd" clip-rule="evenodd" d="M30.1931 61.2589H31.1066L30.3115 57.4402H29.5127C29.1419 57.4402 29.0541 57.727 29.0541 57.727L27.5707 61.2589H28.6066L28.8133 60.6895H30.0785L30.1931 61.2589ZM29.0997 59.9098L29.6235 58.48L29.9178 59.9098H29.0997Z" fill="white"/>
<path fill-rule="evenodd" clip-rule="evenodd" d="M27.6512 58.3579L27.7925 57.5398C27.7925 57.5398 27.3528 57.3716 26.8981 57.3716C26.405 57.3716 25.2315 57.5894 25.2315 58.6369C25.2315 59.6232 26.6074 59.6346 26.6074 60.1544C26.6074 60.6706 25.373 60.5786 24.9677 60.2501L24.8185 61.1102C24.8185 61.1102 25.2621 61.3244 25.9425 61.3244C26.6188 61.3244 27.6434 60.9726 27.6434 60.0168C27.6434 59.0268 26.2558 58.9313 26.2558 58.4992C26.2558 58.0711 27.2231 58.1246 27.6512 58.3579Z" fill="white"/>
<path fill-rule="evenodd" clip-rule="evenodd" d="M21.3172 59.5007L20.9846 57.7844C20.9846 57.7844 20.9426 57.4402 20.5106 57.4402H18.9471L18.928 57.5052C18.928 57.5052 19.6811 57.6619 20.4035 58.2467C21.0917 58.8049 21.3172 59.5007 21.3172 59.5007Z" fill="#FAA634"/>
<rect x="65" y="52.6697" width="20.8696" height="13.3565" rx="2.50435" fill="#016FD0"/>
<path d="M67.5044 56.9104C67.5044 55.5014 68.6662 54.3698 70.0746 54.4069L80.9268 54.6925C82.2838 54.7282 83.3653 55.8385 83.3653 57.1959V61.8523C83.3653 63.2354 82.244 64.3566 80.8609 64.3566H70.0087C68.6256 64.3566 67.5044 63.2354 67.5044 61.8523V56.9104Z" fill="white"/>
<path d="M81.5075 62.3284V62.2025C81.2103 62.359 81.4002 62.3284 77.1948 62.3284C77.1948 61.6239 77.1976 61.6603 77.1948 61.6239C77.1481 61.6212 77.1068 61.6212 76.9361 61.6212C76.9361 62.1215 76.9334 61.8112 76.9334 62.3284H75.8436C75.8436 61.9901 75.8463 61.9007 75.8463 61.5121C75.5711 61.6799 75.2188 61.691 74.9023 61.6854C74.9023 62.0962 74.8995 61.9174 74.8995 62.3283H73.5538C73.4134 62.1689 73.4794 62.2416 73.1299 61.8419C73.0418 61.9397 72.7776 62.2305 72.6868 62.3283H70.43V59.7485H72.7171C72.8547 59.905 72.7941 59.8351 73.1436 60.2292C73.2317 60.1314 73.4794 59.8546 73.5758 59.7485H75.172C75.4417 59.7485 75.6674 59.8016 75.8408 59.905V59.7485C77.3352 59.7485 77.6105 59.7093 77.9242 59.891V59.7485H80.0765V59.8938C80.3902 59.7009 80.6159 59.7485 81.8626 59.7485V59.8882C82.1461 59.7233 82.3194 59.7429 83.3571 59.7485V54.846C83.3571 54.1054 82.7654 53.5044 82.036 53.5044H68.8254C68.0961 53.5044 67.5044 54.1054 67.5044 54.846V57.915C67.7631 57.3029 68.0466 56.6293 68.1401 56.4085H69.2328C69.3512 56.6908 69.2768 56.5119 69.4805 56.9982V56.4085H70.7465C70.8263 56.5817 71.052 57.0792 71.1291 57.247C71.2887 56.8668 71.4071 56.5789 71.4759 56.4085H74.3106C74.3106 56.4057 74.6271 56.4085 74.6299 56.4085C75.8326 56.414 76.105 56.3861 76.4022 56.5566V56.4085H77.5004V56.6684C77.7096 56.4979 77.9931 56.4085 78.3453 56.4085H79.1049C79.1049 56.4225 79.1573 56.4169 79.1683 56.4169H80.0599C80.1756 56.6907 80.1315 56.5845 80.3021 56.9926V56.4169H81.4938C81.6287 56.6404 81.4663 56.3665 81.802 56.9311V56.4169H82.9002V58.9883H81.7553C81.6066 58.7367 81.7167 58.9268 81.392 58.3762V58.9883H79.9388C79.7627 58.5746 79.936 58.9799 79.7571 58.5606H79.2342C79.1186 58.8401 79.1737 58.706 79.0581 58.9883H78.3205C77.982 58.9883 77.7067 58.9044 77.5031 58.7395V58.9883H75.6729C75.6646 58.5998 75.6701 58.2951 75.6701 58.2951C75.6206 58.2867 75.5765 58.2895 75.4004 58.2895V58.9911H71.6712V58.6724C71.6024 58.8289 71.5969 58.8373 71.5309 58.9911H70.719C70.6089 58.7423 70.6392 58.8122 70.5786 58.6724V58.9911H69.1227C69.0071 58.7088 69.0621 58.8429 68.9466 58.5634H68.4181C68.3025 58.8429 68.3576 58.7088 68.242 58.9911H67.5099V64.6845C67.5099 65.4252 68.1016 66.0261 68.831 66.0261H82.0442C82.7735 66.0261 83.3653 65.4252 83.3653 64.6845V62.1578C83.0157 62.3898 82.4653 62.3284 81.5075 62.3284Z" fill="#016FD0"/>
<path d="M77.1716 56.8464H76.7097V58.7403H77.1716V56.8464Z" fill="#016FD0"/>
<path d="M76.4501 57.3548C76.4501 56.9066 76.0647 56.852 75.7013 56.852L74.6327 56.8438V58.7377H75.0809V58.0517H75.5728C76.0757 58.0517 75.9691 58.3332 75.9773 58.7377H76.431V58.3687C76.431 58.1173 76.39 57.956 76.1303 57.8659C76.3326 57.7839 76.4528 57.5735 76.4501 57.3548ZM75.6466 57.6636H75.0809V57.2455H75.6549C75.7943 57.2455 75.9472 57.2728 75.9472 57.4477C75.9472 57.6281 75.8023 57.6636 75.6466 57.6636Z" fill="#016FD0"/>
<path d="M74.3212 57.2454V56.8464H72.8044V58.7403H74.3212V58.3495H73.2581V57.9724H74.2911V57.587H73.2581V57.2454H74.3212Z" fill="#016FD0"/>
<path d="M72.4683 58.7403V56.8464H71.7139L71.1756 58.1309L70.5825 56.8464H69.8419V58.6419L69.0739 56.8464H68.4044L67.5927 58.7403H68.0819L68.2568 58.3222H69.1996L69.3745 58.7403H70.2983V57.2591L70.9541 58.7403H71.3532L72.0091 57.2591V58.7403H72.4683ZM68.418 57.9286L68.7241 57.1743L69.0384 57.9286H68.418Z" fill="#016FD0"/>
<path d="M75.1902 60.1096H73.75L73.176 60.7327L72.6158 60.1096H70.7984L70.7957 62.0035H72.583L73.1651 61.375L73.7226 62.0035H74.6026L74.6053 61.3668C75.1219 61.3668 75.9527 61.4924 75.9527 60.73C75.9527 60.2572 75.6166 60.1096 75.1902 60.1096ZM72.3534 61.6045H71.2438V61.2274H72.2359V60.8421H71.2438V60.5004H72.3835L72.8727 61.0525L72.3534 61.6045ZM74.1517 61.8286L73.4603 61.0607L74.1517 60.3118V61.8286ZM75.1848 60.9814H74.6053V60.5004H75.1929C75.346 60.5004 75.4717 60.5633 75.4717 60.73C75.4717 60.9049 75.346 60.9814 75.1848 60.9814Z" fill="#016FD0"/>
<path d="M77.3931 57.8085C77.3931 58.4152 77.6718 58.7377 78.2949 58.7377H78.8197L78.9945 58.3196H79.9319L80.1123 58.7377H81.0333V57.3193L81.886 58.7377H82.531V56.852H82.0691V58.1666L81.2738 56.852H80.5823V58.6393L79.8199 56.852H79.1421L78.4998 58.3414H78.2976C77.9341 58.3414 77.8576 58.12 77.8576 57.7976C77.8576 57.1471 78.2867 57.251 78.7622 57.2592V56.8438H78.3221C77.68 56.8438 77.3931 57.1717 77.3931 57.8085ZM79.4729 57.1744L79.7789 57.9287H79.1558L79.4729 57.1744Z" fill="#016FD0"/>
<path d="M80.8993 61.5964H80.0194L80.0166 62.0009H80.8966C81.3011 62.0009 81.6126 61.8478 81.6126 61.3997C81.6126 60.4923 80.4403 61.0936 80.4403 60.6808C80.4403 60.5278 80.5741 60.506 80.6916 60.506H81.5225V60.1069H80.6152C80.2653 60.1069 79.9729 60.2874 79.9729 60.6726C79.9729 61.5745 81.1398 61.0143 81.1398 61.4215C81.1371 61.5691 81.0113 61.5964 80.8993 61.5964Z" fill="#016FD0"/>
<path d="M77.9888 60.6207C77.9888 60.1725 77.6035 60.1096 77.2482 60.1096H76.1714L76.1687 62.0035H76.6224L76.625 61.3121H77.1061C77.4067 61.3121 77.5105 61.3668 77.5105 61.6893L77.5078 62.0035H77.9615L77.9642 61.6264C77.9642 61.3832 77.915 61.2137 77.6635 61.1235C77.874 61.0388 77.9861 60.8284 77.9888 60.6207ZM77.1908 60.9268H76.625V60.5004H77.199C77.3384 60.5004 77.4914 60.5278 77.4914 60.7027C77.4914 60.8913 77.3439 60.9268 77.1908 60.9268Z" fill="#016FD0"/>
<path d="M79.7461 60.5004V60.1096H78.2374L78.2347 62.0035H79.7434L79.7461 61.6127L78.6911 61.6045V61.2274H79.7269V60.8421H78.6939V60.5004H79.7461Z" fill="#016FD0"/>
<path d="M82.4572 60.5086H83.2798V60.1096H82.3806C82.0308 60.1096 81.7302 60.29 81.7302 60.6754C81.7302 61.5772 82.8972 61.0252 82.8972 61.4242C82.8972 61.5635 82.7797 61.5991 82.6676 61.5991H81.7931L81.7903 62.0035H82.6649C82.8945 62.0035 83.1459 61.9543 83.2798 61.7603V61.0551C82.9928 60.678 82.2058 61.0196 82.2058 60.6862C82.2058 60.5278 82.3314 60.5086 82.4572 60.5086Z" fill="#016FD0"/>
<rect x="40" y="52.6697" width="20.8696" height="13.3565" rx="2.50435" fill="#E1E1E7"/>
<path d="M48.0452 63.8153C50.6371 63.8153 52.7383 61.7141 52.7383 59.1222C52.7383 56.5303 50.6371 54.4292 48.0452 54.4292C45.4533 54.4292 43.3522 56.5303 43.3522 59.1222C43.3522 61.7141 45.4533 63.8153 48.0452 63.8153Z" fill="#E74C3C"/>
<path d="M53.4087 63.8153C56.0006 63.8153 58.1018 61.7141 58.1018 59.1222C58.1018 56.5303 56.0006 54.4292 53.4087 54.4292C50.8168 54.4292 48.7157 56.5303 48.7157 59.1222C48.7157 61.7141 50.8168 63.8153 53.4087 63.8153Z" fill="#F1C40F"/>
<path fill-rule="evenodd" clip-rule="evenodd" d="M51.9337 56.7757H48.1793C48.0452 56.9768 47.9111 57.1779 47.777 57.4461H52.336C52.2019 57.1779 52.0678 56.9768 51.9337 56.7757ZM50.861 55.4348H49.319C49.1179 55.6359 48.9168 55.8371 48.7156 56.1052H51.5315C51.2633 55.8371 50.9951 55.6359 50.861 55.4348ZM52.6041 58.1166H47.5759C47.5088 58.3177 47.4418 58.5859 47.4418 58.787H52.7382C52.6712 58.5859 52.6712 58.3177 52.6041 58.1166ZM48.1793 61.4687H51.9337C52.0678 61.2676 52.2019 61.0665 52.336 60.7983H47.777C47.9111 61.0665 48.0452 61.2676 48.1793 61.4687ZM47.5088 60.1279H52.5371C52.6041 59.9267 52.6712 59.6586 52.6712 59.4574H47.3748C47.4418 59.6586 47.4418 59.9267 47.5088 60.1279ZM49.252 62.8096H50.794C50.9951 62.6085 51.1962 62.4073 51.3974 62.1392H48.5815C48.8497 62.4073 49.1179 62.6085 49.252 62.8096Z" fill="#E74C3C"/>
<rect x="90" y="52.6697" width="20.8696" height="13.3565" rx="2.50435" fill="#E9E9EE"/>
<path d="M109.901 64.364V59.6028C109.901 59.6028 104.554 63.3751 94.7618 65.0646H108.83C109.432 65.0461 109.783 64.8503 109.901 64.364Z" fill="#EF7D00"/>
<path d="M100.655 55.7991C99.8522 55.7991 99.2004 56.4266 99.2004 57.2011C99.2004 58.0245 99.8238 58.64 100.655 58.64C101.466 58.64 102.106 58.0164 102.106 57.2173C102.106 56.4229 101.471 55.7991 100.655 55.7991Z" fill="url(#paint0_radial)"/>
<path d="M92.3953 55.8508H91.613V58.579H92.3912C92.804 58.579 93.1026 58.4812 93.3646 58.2643C93.6753 58.0066 93.8597 57.618 93.8597 57.2163C93.8596 56.4108 93.2579 55.8508 92.3953 55.8508ZM93.0173 57.8999C92.8491 58.0517 92.6326 58.1173 92.2885 58.1173H92.1455V56.3128H92.2885C92.6326 56.3128 92.8408 56.3743 93.0173 56.5336C93.2014 56.6973 93.3112 56.9507 93.3112 57.2124C93.3112 57.4746 93.2014 57.7369 93.0173 57.8999Z" fill="#05171D"/>
<path d="M94.6368 55.8502H94.1052V58.5784H94.6368V55.8502Z" fill="#05171D"/>
<path d="M95.9384 56.8967C95.6188 56.7784 95.5248 56.7003 95.5248 56.5536C95.5248 56.3816 95.6922 56.2508 95.9216 56.2508C96.0812 56.2508 96.2121 56.3162 96.3517 56.4712L96.6295 56.1077C96.4004 55.9068 96.1263 55.8047 95.8274 55.8047C95.3452 55.8047 94.9767 56.1402 94.9767 56.5858C94.9767 56.9625 95.1484 57.1545 95.6476 57.335C95.8564 57.4083 95.9625 57.4571 96.0158 57.4906C96.1222 57.5601 96.1756 57.6579 96.1756 57.7724C96.1756 57.9936 95.9995 58.1571 95.7619 58.1571C95.5083 58.1571 95.3039 58.0304 95.1811 57.7932L94.8379 58.1249C95.0828 58.4844 95.3775 58.6444 95.7828 58.6444C96.3351 58.6444 96.7236 58.2757 96.7236 57.7482C96.7235 57.3144 96.544 57.1179 95.9384 56.8967Z" fill="#05171D"/>
<path d="M96.8912 57.2157C96.8912 58.0183 97.5214 58.64 98.3317 58.64C98.5608 58.64 98.7572 58.5947 98.9988 58.4806V57.8544C98.7858 58.0672 98.5975 58.153 98.356 58.153C97.8202 58.153 97.4395 57.7642 97.4395 57.2117C97.4395 56.6884 97.8321 56.275 98.3317 56.275C98.585 56.275 98.7776 56.365 98.9988 56.5818V55.9556C98.7655 55.8373 98.573 55.7886 98.3438 55.7886C97.5377 55.7887 96.8912 56.4229 96.8912 57.2157Z" fill="#05171D"/>
<path d="M103.311 57.6829L102.582 55.8502H102.001L103.16 58.6482H103.446L104.624 55.8502H104.047L103.311 57.6829Z" fill="#05171D"/>
<path d="M104.866 58.5785H106.375V58.1166H105.398V57.3798H106.338V56.9177H105.398V56.3122H106.375V55.8502H104.866V58.5785Z" fill="#05171D"/>
<path d="M108.482 56.6554C108.482 56.1443 108.131 55.8502 107.517 55.8502H106.727V58.5784H107.259V57.482H107.329L108.065 58.5784H108.72L107.86 57.4293C108.261 57.3472 108.482 57.073 108.482 56.6554ZM107.414 57.106H107.259V56.2793H107.423C107.755 56.2793 107.935 56.4188 107.935 56.6842C107.935 56.9581 107.755 57.106 107.414 57.106Z" fill="#05171D"/>
<path d="M108.857 56.0535C108.857 56.0056 108.825 55.9797 108.767 55.9797H108.689V56.22H108.746V56.1266L108.814 56.22H108.885L108.805 56.1207C108.839 56.1118 108.857 56.0869 108.857 56.0535ZM108.757 56.0861H108.746V56.0236H108.757C108.786 56.0236 108.8 56.0339 108.8 56.0544C108.8 56.0755 108.785 56.0861 108.757 56.0861Z" fill="#1D1D1B"/>
<path d="M108.778 55.8893C108.662 55.8893 108.568 55.9828 108.568 56.0992C108.568 56.2156 108.662 56.3092 108.778 56.3092C108.892 56.3092 108.986 56.2147 108.986 56.0992C108.986 55.9842 108.892 55.8893 108.778 55.8893ZM108.778 56.2716C108.685 56.2716 108.61 56.1948 108.61 56.0998C108.61 56.0038 108.684 55.9276 108.778 55.9276C108.869 55.9276 108.943 56.0053 108.943 56.0998C108.943 56.1941 108.869 56.2716 108.778 56.2716Z" fill="#1D1D1B"/>
<path d="M96.3827 59.2954L97.0946 60.0412V59.3344H97.1963V60.2881L96.4846 59.544V60.2473H96.3827V59.2954Z" fill="#1D1D1B"/>
<path d="M96.3732 59.2956V60.257H96.4939C96.4939 60.257 96.4939 59.612 96.4939 59.5676C96.525 59.6002 97.2055 60.312 97.2055 60.312V59.3249H97.0849C97.0849 59.3249 97.0849 59.9732 97.0849 60.0177C97.0537 59.9846 96.3732 59.2717 96.3732 59.2717V59.2956ZM96.3923 59.3194C96.4238 59.3519 97.1045 60.0654 97.1045 60.0654C97.1045 60.0654 97.1045 59.3624 97.1045 59.3437C97.1179 59.3437 97.1727 59.3437 97.1867 59.3437C97.1867 59.3622 97.1867 60.2202 97.1867 60.2651C97.1552 60.232 96.4753 59.5202 96.4753 59.5202C96.4753 59.5202 96.4753 60.2194 96.4753 60.2378C96.4608 60.2378 96.4062 60.2378 96.3923 60.2378C96.3923 60.2197 96.3923 59.364 96.3923 59.3194Z" fill="#1D1D1B"/>
<path d="M97.6893 59.3345H98.1623V59.4288H97.7907V59.7003H98.1514V59.7945H97.7907V60.1528H98.1623V60.2473H97.6893V59.3345Z" fill="#1D1D1B"/>
<path d="M98.1624 59.325H97.6797V60.257H98.172V60.1433C98.172 60.1433 97.8184 60.1433 97.8006 60.1433C97.8006 60.1256 97.8006 59.8215 97.8006 59.8037C97.8185 59.8037 98.161 59.8037 98.161 59.8037V59.691C98.161 59.691 97.8184 59.691 97.8006 59.691C97.8006 59.6734 97.8006 59.4555 97.8006 59.439C97.8185 59.439 98.172 59.439 98.172 59.439V59.325H98.1624ZM98.1529 59.3437C98.1529 59.3573 98.1529 59.4059 98.1529 59.4193C98.1347 59.4193 97.7812 59.4193 97.7812 59.4193V59.7097C97.7812 59.7097 98.124 59.7097 98.1419 59.7097C98.1419 59.7231 98.1419 59.7711 98.1419 59.785C98.124 59.785 97.7812 59.785 97.7812 59.785V60.1623C97.7812 60.1623 98.1347 60.1623 98.1529 60.1623C98.1529 60.1762 98.1529 60.2242 98.1529 60.2379C98.1349 60.2379 97.7166 60.2379 97.6987 60.2379C97.6987 60.2197 97.6987 59.3624 97.6987 59.3437C97.7166 59.3437 98.1349 59.3437 98.1529 59.3437Z" fill="#1D1D1B"/>
<path d="M98.8806 60.2473H98.7787V59.4288H98.5586V59.3345H99.1033V59.4288H98.8806V60.2473Z" fill="#1D1D1B"/>
<path d="M99.1033 59.325H98.5485V59.439C98.5485 59.439 98.7518 59.439 98.7691 59.439C98.7691 59.4571 98.7691 60.257 98.7691 60.257H98.8898C98.8898 60.257 98.8898 59.4571 98.8898 59.439C98.9075 59.439 99.1127 59.439 99.1127 59.439V59.325H99.1033ZM99.0938 59.3437C99.0938 59.3573 99.0938 59.4059 99.0938 59.4193C99.0766 59.4193 98.871 59.4193 98.871 59.4193C98.871 59.4193 98.871 60.2194 98.871 60.2378C98.8569 60.2378 98.8026 60.2378 98.7883 60.2378C98.7883 60.2194 98.7883 59.4193 98.7883 59.4193C98.7883 59.4193 98.5853 59.4193 98.5682 59.4193C98.5682 59.4059 98.5682 59.3573 98.5682 59.3437C98.5856 59.3437 99.0759 59.3437 99.0938 59.3437Z" fill="#1D1D1B"/>
<path d="M99.7836 60.0185L100.079 59.2869L100.374 60.0185L100.614 59.3344H100.725L100.374 60.2943L100.079 59.559L99.7836 60.2943L99.4341 59.3344H99.5441L99.7836 60.0185Z" fill="#1D1D1B"/>
<path d="M100.07 59.2837C100.07 59.2837 99.8017 59.9479 99.7841 59.9917C99.7686 59.9474 99.5504 59.325 99.5504 59.325H99.4202L99.7835 60.3218C99.7835 60.3218 100.063 59.6271 100.079 59.5851C100.096 59.6271 100.375 60.3218 100.375 60.3218L100.738 59.325H100.607C100.607 59.325 100.389 59.9474 100.374 59.9917C100.356 59.9479 100.079 59.262 100.079 59.262L100.07 59.2837ZM99.7923 60.0222C99.7923 60.0222 100.063 59.3536 100.079 59.313C100.096 59.3536 100.375 60.0457 100.375 60.0457C100.375 60.0457 100.616 59.3563 100.621 59.3437C100.631 59.3437 100.691 59.3437 100.711 59.3437C100.702 59.368 100.39 60.2239 100.374 60.268C100.357 60.2246 100.079 59.5341 100.079 59.5341C100.079 59.5341 99.8012 60.2246 99.7838 60.268C99.7681 60.2239 99.4566 59.368 99.4474 59.3437C99.4666 59.3437 99.5267 59.3437 99.5371 59.3437C99.5414 59.3563 99.783 60.0457 99.783 60.0457L99.7923 60.0222Z" fill="#1D1D1B"/>
<path d="M102.039 59.7919C102.039 60.0546 101.823 60.2631 101.563 60.2631C101.303 60.2631 101.088 60.0546 101.088 59.7919C101.088 59.5305 101.303 59.3188 101.563 59.3188C101.823 59.3188 102.039 59.5305 102.039 59.7919ZM101.189 59.7908C101.189 59.9964 101.356 60.1683 101.563 60.1683C101.771 60.1683 101.937 59.9964 101.937 59.7908C101.937 59.5837 101.773 59.4128 101.563 59.4128C101.354 59.4128 101.189 59.5837 101.189 59.7908Z" fill="#1D1D1B"/>
<path d="M101.078 59.7919C101.078 60.0568 101.296 60.2724 101.564 60.2724C101.831 60.2724 102.049 60.0567 102.049 59.7919C102.049 59.5254 101.831 59.3093 101.564 59.3093C101.296 59.3093 101.078 59.5254 101.078 59.7919ZM101.097 59.7919C101.097 59.5361 101.306 59.3284 101.564 59.3284C101.82 59.3284 102.03 59.5361 102.03 59.7919C102.03 60.0465 101.82 60.2535 101.564 60.2535C101.306 60.2535 101.097 60.0465 101.097 59.7919Z" fill="#1D1D1B"/>
<path d="M101.18 59.7909C101.18 60.0051 101.352 60.1781 101.564 60.1781C101.775 60.1781 101.947 60.0051 101.947 59.7909C101.947 59.5774 101.775 59.4038 101.564 59.4038C101.352 59.4038 101.18 59.5774 101.18 59.7909ZM101.199 59.7909C101.199 59.588 101.362 59.4227 101.564 59.4227C101.765 59.4227 101.928 59.5881 101.928 59.7909C101.928 59.9939 101.765 60.1594 101.564 60.1594C101.362 60.1594 101.199 59.9938 101.199 59.7909Z" fill="#1D1D1B"/>
<path d="M102.582 60.2473H102.48V59.3345H102.612C102.785 59.3345 102.946 59.3807 102.946 59.5862C102.946 59.7267 102.858 59.8261 102.717 59.8381L103.008 60.2474H102.883L102.607 59.8464H102.582V60.2473ZM102.582 59.7569H102.613C102.728 59.7569 102.844 59.7352 102.844 59.5934C102.844 59.4437 102.734 59.4287 102.612 59.4287H102.582V59.7569Z" fill="#1D1D1B"/>
<path d="M102.48 59.325H102.471V60.2571H102.591C102.591 60.2571 102.591 59.8742 102.591 59.856C102.599 59.856 102.607 59.856 102.607 59.856C102.607 59.863 102.875 60.2528 102.875 60.2528L103.008 60.2571H103.026C103.026 60.2571 102.748 59.8649 102.733 59.8438C102.868 59.8252 102.955 59.7268 102.955 59.5863C102.955 59.4102 102.843 59.325 102.612 59.325H102.48V59.325ZM102.612 59.3437C102.833 59.3437 102.937 59.4209 102.937 59.5864C102.937 59.7221 102.85 59.8176 102.716 59.8288L102.7 59.8304C102.7 59.8304 102.97 60.2101 102.99 60.2378C102.963 60.2378 102.883 60.2378 102.883 60.2378H102.883C102.883 60.2309 102.615 59.8411 102.615 59.8411L102.582 59.837H102.572C102.572 59.837 102.572 60.2196 102.572 60.2378C102.558 60.2378 102.503 60.2378 102.49 60.2378C102.49 60.2196 102.49 59.3623 102.49 59.3436C102.506 59.3437 102.612 59.3437 102.612 59.3437Z" fill="#1D1D1B"/>
<path d="M102.582 59.4192H102.572V59.7662H102.613C102.725 59.7662 102.854 59.7465 102.854 59.5935C102.854 59.4325 102.729 59.4192 102.612 59.4192H102.582ZM102.612 59.439C102.729 59.439 102.835 59.4502 102.835 59.5935C102.835 59.7289 102.723 59.747 102.613 59.747C102.613 59.747 102.601 59.747 102.591 59.747C102.591 59.7297 102.591 59.4561 102.591 59.439C102.6 59.439 102.612 59.439 102.612 59.439Z" fill="#1D1D1B"/>
<path d="M103.929 59.3345H104.066L103.638 59.7598L104.081 60.2473H103.94L103.566 59.8285L103.54 59.8533V60.2473H103.439V59.3345H103.54V59.7254L103.929 59.3345Z" fill="#1D1D1B"/>
<path d="M104.066 59.325H103.926C103.926 59.325 103.58 59.6723 103.55 59.7028C103.55 59.6616 103.55 59.325 103.55 59.325H103.43V60.257H103.55C103.55 60.257 103.55 59.8568 103.55 59.855C103.551 59.8555 103.559 59.848 103.565 59.8422C103.578 59.856 103.933 60.2538 103.933 60.2538L104.081 60.2571H104.102C104.102 60.2571 103.663 59.773 103.65 59.7602C103.664 59.7471 104.089 59.325 104.089 59.325H104.066V59.325ZM104.043 59.3437C104.013 59.3744 103.624 59.7594 103.624 59.7594C103.624 59.7594 104.032 60.2079 104.059 60.2378C104.028 60.2378 103.94 60.2378 103.94 60.2378C103.94 60.233 103.573 59.8221 103.573 59.8221L103.566 59.8144L103.534 59.847C103.534 59.847 103.531 60.2197 103.531 60.2378C103.517 60.2378 103.462 60.2378 103.449 60.2378C103.449 60.2197 103.449 59.3624 103.449 59.3437C103.462 59.3437 103.517 59.3437 103.531 59.3437C103.531 59.3622 103.531 59.7488 103.531 59.7488C103.531 59.7488 103.928 59.3493 103.933 59.3437C103.939 59.3437 104.012 59.3437 104.043 59.3437Z" fill="#1D1D1B"/>
<defs>
<radialGradient id="paint0_radial" cx="0" cy="0" r="1" gradientUnits="userSpaceOnUse" gradientTransform="translate(100.653 57.2195) scale(1.43682)">
<stop offset="0.0056" stop-color="#FFF2E8"/>
<stop offset="0.0961" stop-color="#FEEDDF"/>
<stop offset="0.2438" stop-color="#FDE1C7"/>
<stop offset="0.4303" stop-color="#FACD9F"/>
<stop offset="0.6484" stop-color="#F6B168"/>
<stop offset="0.8901" stop-color="#F08E22"/>
<stop offset="1" stop-color="#EE7D00"/>
</radialGradient>
</defs>
</svg>